<?xml version="1.0" standalone="no"?><!DOCTYPE svg PUBLIC "-//W3C//DTD SVG 1.1//EN" "http://www.w3.org/Graphics/SVG/1.1/DTD/svg11.dtd"><svg t="1743319199851" class="icon" viewBox="0 0 1024 1024" version="1.1" xmlns="http://www.w3.org/2000/svg" p-id="1507" width="16" height="16" xmlns:xlink="http://www.w3.org/1999/xlink"><path d="M438.502024 398.446097l2.047639 5.733391-430.004319 431.847195a36.345603 36.345603 0 0 0 0 51.190991L136.168034 1013.352274l5.119099 4.197661c14.333477 9.931052 33.58129 8.190558 45.867128-4.095279l430.004319-431.949577 5.733391 2.150022c105.45344 36.038457 222.168898 8.80485 301.003023-70.234039 86.81992-87.434212 129.20606-207.733039 77.400778-319.636544l-3.276223-5.835773a36.038457 36.038457 0 0 0-54.979124-4.607189L809.022412 343.77412l-136.168034-102.484363L811.889108 82.495305a36.345603 36.345603 0 0 0-10.545345-58.357729C690.05455-28.077234 595.555982 8.882661 508.531298 96.112108l-11.057253 11.671546a295.064869 295.064869 0 0 0-58.972021 290.560062z" fill="#3BA432" p-id="1508"></path></svg>