<?xml version="1.0" standalone="no"?><!DOCTYPE svg PUBLIC "-//W3C//DTD SVG 1.1//EN" "http://www.w3.org/Graphics/SVG/1.1/DTD/svg11.dtd"><svg t="1743320025887" class="icon" viewBox="0 0 1024 1024" version="1.1" xmlns="http://www.w3.org/2000/svg" p-id="22570" xmlns:xlink="http://www.w3.org/1999/xlink" width="16" height="16"><path d="M949.078072 813.273878l-184.31136-104.827086a22.206959 22.206959 0 0 0-33.27844 19.1991v210.294142c0 17.27919 18.55913 28.15868 33.27844 19.1991l184.31136-104.827086c14.71931-8.95958 14.71931-30.07859 0-39.03817zM485.739791 1.91991c-89.5958 13.43937-156.79265 92.15568-156.79265 184.823336v24.95883h365.422871v-24.95883c0-53.75748-23.03892-105.531053-63.357031-140.665406a178.039654 178.039654 0 0 0-145.27319-44.15793z m191.991 938.004031a186.87124 186.87124 0 0 1-33.27844-106.746996 189.367123 189.367123 0 0 1 189.431121-189.303127c2.55988 0 4.47979 0.63997 7.03967 0.63997V576.676968h146.55313c20.47904 0 36.47829-16.63922 36.47829-37.054263 0-20.47904-16.63922-37.11826-36.47829-37.11826h-146.55313V327.408653l98.55538-95.931503a37.75823 37.75823 0 0 0-14.71931-62.653064 35.518335 35.518335 0 0 0-35.83832 8.95958l-104.31511 101.691234H239.351341L135.03623 178.359639a35.518335 35.518335 0 0 0-35.83832-8.95958c-12.7994 3.83982-22.39895 14.07934-24.95883 26.87874-3.19985 12.7994 0.63997 26.23877 10.23952 35.838321l98.55538 95.867506v174.583816H36.48085a36.030311 36.030311 0 0 0-36.47829 36.414293c0 20.47904 16.63922 37.11826 36.47829 37.11826h146.55313v75.388466c0 61.43712 16.63922 119.610393 44.797901 168.824087l-143.353281 139.385466a37.75823 37.75823 0 0 0 14.71931 62.71706c12.7994 3.83982 26.23877 0.63997 35.83832-8.95958l136.953581-133.049763a327.664641 327.664641 0 0 0 203.51046 104.251113V539.622705c0-20.47904 16.63922-37.11826 36.47829-37.11826 20.47904 0 36.47829 16.63922 36.47829 37.11826v445.035139c46.07784-5.11976 89.5958-21.11901 129.27394-44.7979z" fill="#38A438" p-id="22571"></path></svg>